<svg xmlns="http://www.w3.org/2000/svg" width="600" height="600" id="Layer_1" x="0" y="0" version="1.1" viewBox="0 0 120 120" xml:space="preserve">
<style>.st1{fill:#eceff1;stroke-linecap:square}.st1,.st2,.st4,.st5{stroke:#212121;stroke-width:1.5}.st2{stroke-miterlimit:10;fill:none;stroke-linecap:square}.st4,.st5{fill:#66bb6a;stroke-linecap:round}.st5{fill:#f06292;stroke-linecap:square}.st6{fill:#263238}.st7{fill:#eceff1}.st11{fill:#212121}.st19,.st20{fill:none;stroke:#263238;stroke-width:1.5;stroke-linecap:square}.st20{fill:#eceff1}</style><g id="Charting"><circle id="back_x5F_circle_39_" cx="60" cy="60" r="50" fill="#f0f0f0" stroke="#777" stroke-dasharray="1,4" stroke-linecap="square" stroke-width="2"/><path d="M55 58H23c-1.6 0-3-1.3-3-3V23c0-1.6 1.4-3 3-3h32c1.7 0 3 1.4 3 3v32c0 1.7-1.3 3-3 3zM55 100H23c-1.6 0-3-1.3-3-3V65c0-1.7 1.4-3 3-3h32c1.7 0 3 1.3 3 3v32c0 1.7-1.3 3-3 3zM97 100H65c-1.7 0-3-1.3-3-3V65c0-1.7 1.3-3 3-3h32c1.7 0 3 1.3 3 3v32c0 1.7-1.3 3-3 3zM97 58H65c-1.7 0-3-1.3-3-3V23c0-1.6 1.3-3 3-3h32c1.7 0 3 1.4 3 3v32c0 1.7-1.3 3-3 3z" class="st1"/><path d="M95 95H67" class="st2"/><path fill="none" stroke="#212121" stroke-linecap="square" stroke-width="1.5" d="M67 95V67"/><path d="M74 78h6v17h-6z" class="st4"/><path d="M70 86h6v9h-6z" class="st5"/><path d="M88 72h6v23h-6z" class="st4"/><path d="M84 81h6v14h-6z" class="st5"/><path id="headline_12_" d="M70 67h25v2H70z" class="st6"/><path id="headline_5_" d="M70 71h14v2H70z" class="st6"/><path d="M72 66h2v8h-2z" class="st7"/><g><path fill="#ffd55c" stroke="#212121" stroke-linecap="round" stroke-width="1.5" d="M67 53h28V32l-4.9 5-5.1-7-4 7-4-3-5 7-5-3z"/><path fill="#ff6d3b" stroke="#212121" stroke-width="1.5" d="M67 53v-8l5 3 5-5 4 4 4-7 5.1 5 4.9-4v12z"/><path id="headline_15_" d="M66 25h29v2H66z" class="st6"/><path id="headline_13_" d="M66 29h14v2H66z" class="st6"/><path d="M68 24h2v8h-2z" class="st7"/></g><g><path fill="#26a69a" d="M39 53.3c-7.2 0-13.3-5.4-14.1-12.5h5.6c.8 4 4.4 7 8.6 7 1.7 0 3.4-.5 4.8-1.5l3.9 3.9c-2.5 2-5.6 3.1-8.8 3.1z"/><path d="M29.8 41.5c1.1 4.1 4.8 7 9.2 7 1.7 0 3.3-.4 4.7-1.3l2.9 2.9c-2.2 1.5-4.9 2.4-7.6 2.4-6.5 0-12.1-4.7-13.3-11h4.1m1.3-1.5h-7c.5 7.8 7 14 14.9 14 3.8 0 7.2-1.4 9.9-3.7l-5-5C42.5 46.4 40.8 47 39 47c-4.1 0-7.4-3.1-7.9-7z" class="st11"/><path fill="#26c6da" d="M46.3 43.8c1-1.4 1.5-3.1 1.5-4.8 0-1.7-.5-3.4-1.5-4.8l3.9-3.9c2 2.5 3 5.6 3 8.7 0 3.2-1.1 6.3-3 8.8l-3.9-4z"/><path d="M50.1 31.4c1.5 2.2 2.4 4.9 2.4 7.6 0 2.7-.8 5.4-2.4 7.6l-2.9-2.9c.8-1.4 1.3-3 1.3-4.7 0-1.7-.4-3.3-1.3-4.7l2.9-2.9m.2-2.3l-5 5c1.1 1.4 1.7 3.1 1.7 4.9 0 1.8-.6 3.5-1.7 4.9l5 5c2.3-2.6 3.7-6.1 3.7-9.9 0-3.8-1.4-7.2-3.7-9.9z" class="st11"/><g><path fill="#66bb6a" d="M24.9 37.3c.8-6.4 5.9-11.6 12.4-12.4v5.6c-3.4.7-6.1 3.4-6.8 6.8h-5.6z"/><path d="M36.5 25.7v4.1c-3.2.9-5.8 3.4-6.7 6.7h-4.1c1.1-5.4 5.4-9.7 10.8-10.8M38 24c-7.5.5-13.5 6.5-13.9 14h7c.5-3.6 3.3-6.5 6.9-6.9V24z" class="st11"/></g><g><path fill="#29b6f6" d="M43.8 31.7c-.9-.6-2-1-3.1-1.3v-5.6c2.6.3 5 1.3 7 2.9l-3.9 4z"/><path d="M41.5 25.7c1.8.3 3.6 1.1 5.1 2.1l-2.9 2.9c-.7-.4-1.4-.7-2.2-.9v-4.1M40 24.1v7c1.5.2 2.8.8 3.9 1.6l5-5c-2.4-2.1-5.5-3.4-8.9-3.6z" class="st11"/></g></g><g><path d="M52 95H25" class="st2"/><path fill="#ba68c8" stroke="#212121" stroke-linecap="square" stroke-width="1.5" d="M26 80h4v15h-4z"/><path fill="#9575cd" stroke="#212121" stroke-linecap="square" stroke-width="1.5" d="M33 86h4v9h-4z"/><path fill="#7986cb" stroke="#212121" stroke-linecap="square" stroke-width="1.5" d="M40 78h4v17h-4z"/><path fill="#64b5f6" stroke="#212121" stroke-linecap="square" stroke-width="1.5" d="M47 83h4v12h-4z"/><path d="M28 71l7 6M42 69l-7 8M49 74l-7-5" class="st19"/><circle cx="28" cy="71" r="2" class="st20"/><circle cx="35" cy="77" r="2" class="st20"/><circle cx="42" cy="69" r="2" class="st20"/><circle cx="49" cy="74" r="2" class="st20"/></g></g></svg>